# xmcd CD database file
#
# Track frame offsets:
#	150
#	42449
#	86530
#	111905
#	163998
#	206543
#	249545
#	253537
#	260099
#	266869
#	275557
#	276558
#	285455
#	288759
#	294114
#
# Disc length: 3940 seconds
#
# Revision: 0
# Processed by: cddbd v1.5.2PL0 Copyright (c) Steve Scherf et al.
# Submitted via: CDex 1.51
#
DISCID=f00f620f
DTITLE=Miles Davis - Kind Of Blue (Legacy Edition CD1)
DYEAR=2009
DGENRE=Jazz
TTITLE0=So What
TTITLE1=Freddie Freeloader
TTITLE2=Blue In Green
TTITLE3=All Blues
TTITLE4=Flamenco Sketches
TTITLE5=Flamenco Sketches (Alternate Take)
TTITLE6=Freddie Freeloader - studio sequence 1
TTITLE7=Freddie Freeloader - false start
TTITLE8=Freddie Freeloader - studio sequence 2
TTITLE9=So What - studio sequence 1
TTITLE10=So What - studio sequence 2
TTITLE11=Blue In Green - studio sequence
TTITLE12=Flamenco Sketches - studio sequence 1
TTITLE13=Flamenco Sketches - studio sequence 2
TTITLE14=All Blues - studio sequence
EXTD=YEAR: 2009
EXTT0=
EXTT1=
EXTT2=
EXTT3=
EXTT4=
EXTT5=
EXTT6=
EXTT7=
EXTT8=
EXTT9=
EXTT10=
EXTT11=
EXTT12=
EXTT13=
EXTT14=
PLAYORDER=
